<svg class="block size-full" fill="none" preserveAspectRatio="none" viewBox="0 0 16 16" xmlns="http://www.w3.org/2000/svg"><path clip-rule="evenodd" d="M7.29289 2C7.92286 1.37003 9 1.8162 9 2.70711V13.2929C9 14.1838 7.92286 14.63 7.29289 14L4.29289 11H3.00604C2.24515 11 1.4607 10.557 1.23287 9.72996C1.08098 9.17858 1 8.59835 1 8C1 7.40165 1.08098 6.82142 1.23287 6.27004C1.4607 5.44296 2.24515 5 3.00604 5H4.29289L7.29289 2L7.64645 2.35355L7.29289 2ZM8 2.70711L4.85355 5.85355C4.75979 5.94732 4.63261 6 4.5 6H3.00604C2.59447 6 2.2805 6.23234 2.19696 6.53561C2.06868 7.0013 2 7.49223 2 8C2 8.50777 2.06868 8.9987 2.19696 9.46439C2.2805 9.76766 2.59447 10 3.00604 10H4.5C4.63261 10 4.75979 10.0527 4.85355 10.1464L8 13.2929V2.70711ZM12.3891 3.40377C12.5844 3.20851 12.901 3.20851 13.0962 3.40377C15.6346 5.94218 15.6346 10.0578 13.0962 12.5962C12.901 12.7914 12.5844 12.7914 12.3891 12.5962C12.1939 12.4009 12.1939 12.0843 12.3891 11.8891C14.537 9.74117 14.537 6.25876 12.3891 4.11088C12.1939 3.91562 12.1939 3.59903 12.3891 3.40377ZM10.6215 5.17159C10.8168 4.97633 11.1334 4.97633 11.3287 5.17159C12.8907 6.73369 12.8907 9.26635 11.3287 10.8284C11.1334 11.0237 10.8168 11.0237 10.6215 10.8284C10.4263 10.6332 10.4263 10.3166 10.6215 10.1213C11.7931 8.94977 11.7931 7.05027 10.6215 5.8787C10.4263 5.68344 10.4263 5.36686 10.6215 5.17159Z" fill="var(--fill-0, #262626)" fill-rule="evenodd"></path></svg>